<?xml version="1.0" encoding="iso-8859-1"?>
<!-- Generator: Adobe Illustrator 21.1.0, SVG Export Plug-In . SVG Version: 6.00 Build 0)  -->
<svg version="1.1" id="Layer_1" xmlns="http://www.w3.org/2000/svg" xmlns:xlink="http://www.w3.org/1999/xlink" x="0px" y="0px"
	 viewBox="0 0 30 30" style="enable-background:new 0 0 30 30;" xml:space="preserve">
<g>
	<path d="M26,9V6c0-1.105-0.895-2-2-2H6C4.895,4,4,4.895,4,6v3c0,0.552,0.448,1,1,1h20C25.552,10,26,9.552,26,9z"/>
	<path d="M26,17v-4c0-0.552-0.448-1-1-1H5c-0.552,0-1,0.448-1,1v4c0,0.552,0.448,1,1,1h20C25.552,18,26,17.552,26,17z"/>
	<path d="M4,21v3c0,1.105,0.895,2,2,2h18c1.105,0,2-0.895,2-2v-3c0-0.552-0.448-1-1-1H5C4.448,20,4,20.448,4,21z"/>
</g>
</svg>
