<?xml version="1.0" encoding="iso-8859-1"?>
<!-- Generator: Adobe Illustrator 21.1.0, SVG Export Plug-In . SVG Version: 6.00 Build 0)  -->
<svg version="1.1" id="Layer_1" xmlns="http://www.w3.org/2000/svg" xmlns:xlink="http://www.w3.org/1999/xlink" x="0px" y="0px"
	 viewBox="0 0 30 30" style="enable-background:new 0 0 30 30;" xml:space="preserve">
<path d="M24,4H6C4.895,4,4,4.895,4,6v18c0,1.105,0.895,2,2,2h18c1.105,0,2-0.895,2-2V6C26,4.895,25.105,4,24,4z M14,23H7v-1h7V23z
	 M14,20H7v-1h7V20z M14,17H7v-1h7V17z M10.5,13.31C10.5,13.31,7,11,7,9c0-1.105,0.895-2,2-2c0.601,0,1.133,0.27,1.5,0.69
	C10.867,7.27,11.399,7,12,7c1.105,0,2,0.895,2,2C14,11,10.5,13.31,10.5,13.31z M23,23h-7v-1h7V23z M23,20h-7v-1h7V20z M23,17h-7v-1
	h7V17z M23,14h-7v-1h7V14z M23,11h-7v-1h7V11z M23,8h-7V7h7V8z"/>
</svg>
