<?xml version="1.0" encoding="iso-8859-1"?>
<!-- Generator: Adobe Illustrator 21.1.0, SVG Export Plug-In . SVG Version: 6.00 Build 0)  -->
<svg version="1.1" id="Layer_1" xmlns="http://www.w3.org/2000/svg" xmlns:xlink="http://www.w3.org/1999/xlink" x="0px" y="0px"
	 viewBox="0 0 30 30" style="enable-background:new 0 0 30 30;" xml:space="preserve">
<path d="M26,5H4C2.895,5,2,5.895,2,7v16c0,1.105,0.895,2,2,2h22c1.105,0,2-0.895,2-2V7C28,5.895,27.105,5,26,5z M17,21H6
	c-0.553,0-1-0.447-1-1s0.447-1,1-1h11c0.553,0,1,0.447,1,1S17.553,21,17,21z M14,16H6c-0.553,0-1-0.447-1-1s0.447-1,1-1h8
	c0.553,0,1,0.447,1,1S14.553,16,14,16z M17,11H6c-0.553,0-1-0.447-1-1s0.447-1,1-1h11c0.553,0,1,0.447,1,1S17.553,11,17,11z M23,12
	l-2-2l2-2l2,2L23,12z M23,17l-2-2l2-2l2,2L23,17z M23,22l-2-2l2-2l2,2L23,22z"/>
</svg>
