<?xml version="1.0" encoding="iso-8859-1"?>
<!-- Generator: Adobe Illustrator 21.1.0, SVG Export Plug-In . SVG Version: 6.00 Build 0)  -->
<svg version="1.1" id="Layer_1" xmlns="http://www.w3.org/2000/svg" xmlns:xlink="http://www.w3.org/1999/xlink" x="0px" y="0px"
	 viewBox="0 0 30 30" style="enable-background:new 0 0 30 30;" xml:space="preserve">
<line style="fill:none;stroke:#000000;stroke-width:2;stroke-linecap:round;stroke-linejoin:round;stroke-miterlimit:10;" x1="15" y1="5" x2="15" y2="3"/>
<line style="fill:none;stroke:#000000;stroke-width:2;stroke-linecap:round;stroke-linejoin:round;stroke-miterlimit:10;" x1="2" y1="5" x2="28" y2="5"/>
<line style="fill:none;stroke:#000000;stroke-width:2;stroke-linecap:round;stroke-linejoin:round;stroke-miterlimit:10;" x1="16" y1="21" x2="19.5" y2="27.5"/>
<path d="M2,5v16c0,1.105,0.895,2,2,2h22c1.105,0,2-0.895,2-2V5H2z M23.707,10.707l-6,6c-0.391,0.391-1.023,0.391-1.414,0L14,14.414
	l-3.293,3.293C10.512,17.902,10.256,18,10,18s-0.512-0.098-0.707-0.293l-2-2c-0.391-0.391-0.391-1.023,0-1.414s1.023-0.391,1.414,0
	L10,15.586l3.293-3.293c0.391-0.391,1.023-0.391,1.414,0L17,14.586l5.293-5.293c0.391-0.391,1.023-0.391,1.414,0
	S24.098,10.316,23.707,10.707z"/>
<circle cx="19.5" cy="27.5" r="1.5"/>
<line style="fill:none;stroke:#000000;stroke-width:2;stroke-linecap:round;stroke-linejoin:round;stroke-miterlimit:10;" x1="14" y1="21" x2="10.5" y2="27.5"/>
<circle cx="10.5" cy="27.5" r="1.5"/>
</svg>
